<svg width="20" height="20" viewBox="0 0 20 20" fill="#A1E0FF" xmlns="http://www.w3.org/2000/svg">
<path fill-rule="evenodd" clip-rule="evenodd" d="M8.04638 0.0515028C6.92517 0.208053 5.89892 0.725808 5.07318 1.55158C3.29052 3.3342 3.01232 6.07523 4.40063 8.17728C4.74386 8.69695 5.3592 9.31229 5.87887 9.65552C7.64754 10.8237 9.93021 10.8237 11.6989 9.65552C12.2186 9.31229 12.8339 8.69695 13.1771 8.17728C14.3453 6.40861 14.3453 4.12594 13.1771 2.35727C12.8337 1.83721 12.2182 1.22184 11.7003 0.880521C10.6119 0.163346 9.32941 -0.127635 8.04638 0.0515028ZM7.08895 11.7391C5.52532 11.8795 4.25604 12.3628 3.03569 13.2825C2.60043 13.6106 1.87169 14.3505 1.53721 14.804C0.593301 16.0837 0.109348 17.4365 0.013136 19.064C-0.0112883 19.4778 -0.00659881 19.5288 0.0699957 19.6789C0.12541 19.7876 0.205404 19.8691 0.307751 19.9213C0.460784 19.9994 0.521591 20 8.32067 20C13.7261 20 16.2671 19.9869 16.4604 19.958C18.0807 19.7157 19.39 18.5743 19.8415 17.0105C20.4642 14.8536 19.1985 12.5903 17.015 11.956C15.9185 11.6374 14.6672 11.8182 13.7181 12.4321L13.4536 12.6032L13.2608 12.5051C12.9569 12.3504 12.2345 12.0863 11.8125 11.9756C10.9576 11.7511 10.8926 11.7456 9.00381 11.7349C8.03661 11.7295 7.17492 11.7314 7.08895 11.7391ZM16.6242 13.0566C17.6735 13.3471 18.4924 14.1823 18.7575 15.2324C18.7882 15.354 18.8118 15.6426 18.8118 15.8967C18.8118 16.3773 18.7643 16.6318 18.604 17.0105C18.242 17.8657 17.4715 18.5243 16.5656 18.753C16.2865 18.8235 15.5159 18.8235 15.2369 18.753C14.3209 18.5218 13.5434 17.8513 13.1936 16.9909C13.0239 16.5738 12.9936 16.409 12.9922 15.8967C12.9912 15.4927 13.0067 15.3576 13.082 15.1151C13.4083 14.064 14.2648 13.2458 15.2463 13.0472C15.3593 13.0243 15.487 12.9975 15.53 12.9876C15.6736 12.9543 16.4263 13.0018 16.6242 13.0566ZM15.6183 14.2188C15.3937 14.3374 15.315 14.5289 15.315 14.9573V15.3105H14.9618C14.6849 15.3105 14.5752 15.3275 14.4543 15.3892C14.2809 15.4777 14.1427 15.7028 14.1427 15.8967C14.1427 16.0906 14.2809 16.3158 14.4543 16.4042C14.5752 16.4659 14.6849 16.4829 14.9618 16.4829H15.315V16.8362C15.315 17.1131 15.332 17.2227 15.3937 17.3437C15.4822 17.517 15.7073 17.6553 15.9012 17.6553C16.0951 17.6553 16.3203 17.517 16.4087 17.3437C16.4704 17.2227 16.4874 17.1131 16.4874 16.8362V16.4829H16.8407C17.1176 16.4829 17.2272 16.4659 17.3482 16.4042C17.5216 16.3158 17.6598 16.0906 17.6598 15.8967C17.6598 15.7028 17.5216 15.4777 17.3482 15.3892C17.2272 15.3275 17.1176 15.3105 16.8407 15.3105H16.4874V14.9573C16.4874 14.522 16.4091 14.3359 16.1758 14.2168C15.9833 14.1186 15.8069 14.1192 15.6183 14.2188Z"/>
</svg>
