<svg width="22" height="22" viewBox="0 0 22 22" fill="none" xmlns="http://www.w3.org/2000/svg">
<path fill-rule="evenodd" clip-rule="evenodd" d="M8.91676 0.0302093C7.03921 0.194025 5.30445 0.867858 3.75901 2.03365C3.31407 2.36932 2.3641 3.31904 2.02833 3.76384C0.284676 6.07403 -0.359806 8.82692 0.192233 11.6067C0.741735 14.3735 2.56373 16.8416 5.05489 18.1937C8.42328 20.0217 12.4837 19.7189 15.5383 17.4119L15.8823 17.1521L18.2256 19.4876C19.5144 20.7721 20.623 21.8562 20.6891 21.8968C20.8753 22.0111 21.2013 22.0338 21.4259 21.9481C21.6517 21.8618 21.8916 21.6121 21.9664 21.3855C22.0316 21.1881 21.9983 20.8541 21.897 20.6892C21.8564 20.6232 20.772 19.5149 19.4871 18.2264L17.151 15.8837L17.4109 15.5398C21.0772 10.6882 19.4431 3.75125 13.9903 1.01874C12.4764 0.260093 10.5606 -0.113189 8.91676 0.0302093ZM10.7751 1.87375C14.7015 2.44635 17.5807 5.75474 17.5807 9.69388C17.5807 14.0508 14.0489 17.5816 9.6907 17.5816C6.70211 17.5816 4.00723 15.9216 2.64285 13.2401C1.66673 11.3217 1.52725 9.0617 2.25953 7.02881C2.85409 5.37828 4.02709 3.91945 5.48817 3.01354C6.17174 2.58967 7.0211 2.22116 7.73434 2.0389C8.62399 1.81159 9.88079 1.74329 10.7751 1.87375Z" fill="#7C7C7C"/>
</svg>
