<svg width="18" height="20" viewBox="0 0 18 20" fill="#A1E0FF" xmlns="http://www.w3.org/2000/svg">
<path fill-rule="evenodd" clip-rule="evenodd" d="M8.04302 0.0514812C6.26923 0.299138 4.66813 1.51824 3.96434 3.15707C3.24794 4.82539 3.40798 6.67367 4.3988 8.17386C4.74188 8.69332 5.35696 9.3084 5.87642 9.65148C7.64435 10.8191 9.92607 10.8191 11.694 9.65148C12.2135 9.3084 12.8285 8.69332 13.1716 8.17386C14.3393 6.40593 14.3393 4.12422 13.1716 2.35629C12.8283 1.83644 12.2131 1.22133 11.6954 0.880153C10.6075 0.163278 9.32552 -0.127581 8.04302 0.0514812ZM7.08599 11.7339C5.51407 11.8777 4.25466 12.3573 3.03442 13.277C2.59934 13.6049 1.8709 14.3445 1.53657 14.7978C0.593053 16.077 0.109302 17.4292 0.0131305 19.056C-0.0112836 19.4697 -0.00659606 19.5207 0.0699665 19.6707C0.125357 19.7793 0.205318 19.8608 0.307623 19.913C0.460709 19.9911 0.520318 19.9916 8.78521 19.9916C17.0501 19.9916 17.1097 19.9911 17.2628 19.913C17.3651 19.8608 17.4451 19.7793 17.5004 19.6707C17.577 19.5207 17.5817 19.4697 17.5573 19.056C17.4384 17.0449 16.6983 15.371 15.3103 13.9744C14.1334 12.7902 12.8045 12.1006 11.129 11.8044C10.8249 11.7507 10.4406 11.7371 9.00005 11.7293C8.03325 11.724 7.17192 11.7261 7.08599 11.7339Z"/>
</svg>
